# xmcd
#
# Track frame offsets:
#	150
#	17980
#	36940
#	54000
#	74052
#	91872
#	116110
#	134390
#	154085
#	176862
#	194227
#	211447
#	235000
#	256347
#	279057
#
# Disc length: 3989 seconds
#
# Revision: 2
# Processed by: cddbd v1.5.2PL0 Copyright (c) Steve Scherf et al.
# Submitted via: EasyCDDAExtractor 10.0.3.1
#
DISCID=db0f930f
DTITLE=Cool - Cool 7th
DYEAR=2001
DGENRE=Korea Pop
TTITLE0=I Love You
TTITLE1=Tell me why
TTITLE2=White Christmas
TTITLE3=아로하
TTITLE4=헤어지는 날
TTITLE5=그래서 행복합니다
TTITLE6=나의 바램
TTITLE7=소원
TTITLE8=Love Again
TTITLE9=하늘로 쓰는 편지
TTITLE10=아마 그댄..
TTITLE11=웨딩전야
TTITLE12=그녀의 결혼식
TTITLE13=한잔의 추억
TTITLE14=우리 이렇게 서로 스쳐 보내면
EXTD=YEAR: 2001
EXTT0=
EXTT1=
EXTT2=
EXTT3=
EXTT4=
EXTT5=
EXTT6=
EXTT7=
EXTT8=
EXTT9=
EXTT10=
EXTT11=
EXTT12=
EXTT13=
EXTT14=
PLAYORDER=
